<svg xmlns="http://www.w3.org/2000/svg" viewBox="0 0 64 64" id="credit-card"><path d="M36 3h2c.6 0 1-.4 1-1s-.4-1-1-1h-2c-.6 0-1 .4-1 1s.4 1 1 1z"></path><path d="M62.9 3.8c0-1.5-1.3-2.8-2.8-2.8H42.6c-.6 0-1 .4-1 1s.4 1 1 1h17.5c.4 0 .8.4.8.8V7H3V3.8c0-.4.4-.8.8-.8h28.4c.6 0 1-.4 1-1s-.4-1-1-1H3.8C2.3 1 1 2.3 1 3.8v32.4C1 37.7 2.3 39 3.8 39H16c.6 0 1-.4 1-1s-.4-1-1-1H3.8c-.4 0-.8-.4-.8-.8V17h8.1c.6 0 1-.4 1-1s-.4-1-1-1H3V9h57.9v6H16.8c-.6 0-1 .4-1 1s.4 1 1 1h44.1v19.1c0 .4-.4.8-.8.8H48c-.6 0-1 .4-1 1s.4 1 1 1h12.1c1.5 0 2.8-1.3 2.8-2.8V3.8z"></path><path d="M46 41h-1v-7c0-7.2-5.8-13-13-13-4.4 0-8.5 2.2-10.9 6-.3.5-.2 1.1.3 1.4.5.3 1.1.2 1.4-.3 2-3.2 5.5-5.1 9.3-5.1 6.1 0 11 4.9 11 11v7h-2v-7c0-2.9-1.4-5.6-3.7-7.3-.4-.3-1.1-.2-1.4.2-.3.4-.2 1.1.2 1.4 1.8 1.3 2.9 3.4 2.9 5.7v7H25v-7c0-3.9 3.1-7 7-7 .4 0 .8 0 1.2.1.6.1 1.1-.3 1.2-.8.1-.5-.3-1.1-.8-1.2-.5-.1-1.1-.1-1.6-.1-5 0-9 4-9 9v7h-2v-7c0-1.2.2-2.3.5-3.4.2-.5-.1-1.1-.6-1.3-.5-.2-1.1.1-1.3.6-.4 1.3-.6 2.6-.6 4v7h-1c-1.7 0-3 1.3-3 3v16c0 1.7 1.3 3 3 3h2.5c.6 0 1-.4 1-1s-.4-1-1-1H18c-.6 0-1-.4-1-1V44c0-.6.4-1 1-1h28c.6 0 1 .4 1 1v16c0 .6-.4 1-1 1H24c-.6 0-1 .4-1 1s.4 1 1 1h22c1.7 0 3-1.3 3-3V44c0-1.7-1.3-3-3-3z"></path><path d="M46.6 30.3c-.5.3-.6.9-.3 1.4.2.3.5.5.9.5.2 0 .4 0 .5-.1.1-.1.2-.2.4-.3 1.2.8 2.6 1.3 4 1.3 3.9 0 7-3.1 7-7s-3.1-7-7-7c-1.5 0-2.9.4-4 1.2-1.1-.8-2.5-1.2-4-1.2s-2.9.4-4 1.3c-.4.3-.6.9-.2 1.4.3.4.9.6 1.4.2.7-.7 1.7-1 2.7-1 2.8 0 5 2.2 5 5 0 1.7-.9 3.4-2.4 4.3zM52 21c2.8 0 5 2.2 5 5s-2.2 5-5 5c-.8 0-1.7-.2-2.5-.7 1-1.2 1.5-2.7 1.5-4.3 0-1.6-.6-3.1-1.5-4.3.7-.5 1.6-.7 2.5-.7zM32 57c.6 0 1-.4 1-1v-3.2c1.2-.4 2-1.5 2-2.8 0-1.7-1.3-3-3-3s-3 1.3-3 3c0 1.3.8 2.4 2 2.8V56c0 .6.4 1 1 1zm0-8c.6 0 1 .4 1 1s-.4 1-1 1-1-.4-1-1 .4-1 1-1zm-5.1-11c0 .6.4 1 1 1h8.5c.6 0 1-.4 1-1s-.4-1-1-1h-8.5c-.5 0-1 .4-1 1zm15.4 21c1.5 0 2.7-1.2 2.7-2.7V54c0-.6-.4-1-1-1s-1 .4-1 1v2.3c0 .3-.2.7-.7.7H40c-.6 0-1 .4-1 1s.4 1 1 1h2.3zM27 46c0-.6-.4-1-1-1h-4.7c-1.2 0-2.3 1.1-2.3 2.3v.7c0 .6.4 1 1 1s1-.4 1-1v-.7c0-.1.2-.3.3-.3H26c.6 0 1-.4 1-1zM6 29c.6 0 1-.4 1-1v-2c0-.6-.4-1-1-1s-1 .4-1 1v2c0 .6.4 1 1 1zm-1 3.6C5 33.9 6.1 35 7.4 35H14c.6 0 1-.4 1-1s-.4-1-1-1H7.4c-.2 0-.4-.2-.4-.4V32c0-.6-.4-1-1-1s-1 .4-1 1v.6z"></path></svg>